<?xml version="1.0" encoding="UTF-8" standalone="no"?><!DOCTYPE svg PUBLIC "-//W3C//DTD SVG 1.1//EN" "http://www.w3.org/Graphics/SVG/1.1/DTD/svg11.dtd"><svg width="100%" height="100%" viewBox="0 0 300 113" version="1.1" xmlns="http://www.w3.org/2000/svg" xmlns:xlink="http://www.w3.org/1999/xlink" xml:space="preserve" xmlns:serif="http://www.serif.com/" style="fill-rule:evenodd;clip-rule:evenodd;stroke-linejoin:round;stroke-miterlimit:2;"><g id="D3"><g><g><path d="M218.218,104.981c16.722,-0.245 25.374,-5.132 25.452,-22.072l0.402,-53.097l-13.42,0.01l-0.259,54.819c-0.109,5.924 -4.157,10.425 -12.24,10.511c-0.398,0.005 -12.28,-0.005 -12.28,-0.005l0.049,9.846c0,0 11.919,-0.007 12.296,-0.012Z" style="fill-rule:nonzero;"/></g><g><path d="M273.325,104.981c16.722,-0.245 26.597,-5.132 26.675,-22.072l-0.003,-51.731l-14.462,-0.057l-0.036,53.52c-0.109,5.924 -4.156,10.425 -12.239,10.511c-0.398,0.005 -15.15,-0.005 -15.15,-0.005l0.125,9.846c-0,0 14.713,-0.007 15.09,-0.012Z" style="fill-rule:nonzero;"/></g><path d="M215.304,83.595c4.845,0 11.448,-4.455 15.097,-6.395c8.768,-4.661 12.758,-9.755 12.758,-20.047c0,-14.681 -8.603,-27.341 -25.198,-27.341c-16.703,0 -25.486,13.505 -25.486,28.186c-0,14.575 6.233,25.597 22.829,25.597Zm2.657,-11.654c-9.256,-0 -11.446,-7.294 -11.446,-14.741c0,-7.659 2.297,-14.834 11.446,-14.834c9.255,-0 12.234,7.128 12.234,14.787c-0,7.553 -3.085,14.788 -12.234,14.788Z" style="fill-rule:nonzero;"/><path d="M12.979,84.728c2.447,-0 5.425,-0.532 8.511,-1.702l-0,-11.384c-1.383,0.32 -2.66,0.532 -3.724,0.532c-2.128,0 -3.404,-0.638 -3.404,-3.085l-0,-59.681l-14.362,-0l-0,61.171c-0,9.787 5.638,14.149 12.979,14.149Z" style="fill-rule:nonzero;"/><rect x="30.107" y="31.11" width="14.468" height="52.447" style="fill-rule:nonzero;"/><path d="M37.577,14.724c-0.167,0.248 -3.72,5.55 -3.779,8.118c-0.057,2.469 0.306,2.744 0.306,2.744c0,-0 -5.312,-2.302 -4.422,-7.053c0.867,-4.633 7.562,-17.863 7.89,-18.509l-0,-0.02c-0,0 0.002,0.003 0.005,0.01c0.005,-0.009 0.007,-0.014 0.007,-0.014l0,0.028c0.328,0.646 7.023,13.876 7.89,18.509c0.89,4.751 -4.422,7.053 -4.422,7.053c-0,-0 0.363,-0.275 0.306,-2.744c-0.059,-2.584 -3.656,-7.936 -3.781,-8.122Z" style="fill:#140b19;"/><path d="M87.767,42.387l-0,-11.277l-13.192,0l0,-19.574l-14.362,10.638l0,8.936l-8.51,0l-0,11.277l8.51,-0l0,25.426c0,12.34 8.085,16.915 17.447,16.915c3.511,-0 6.809,-0.532 10.107,-1.702l-0,-11.384c-2.341,0.745 -4.575,1.171 -6.596,1.171c-5.319,-0 -6.596,-3.085 -6.596,-6.171l0,-24.255l13.192,-0Z" style="fill-rule:nonzero;"/><path d="M131.171,31.11l0,18.617c0,10.852 0,22.341 -10.744,22.341c-8.724,-0 -9.149,-7.234 -9.149,-11.596l-0,-29.362l-14.362,0l-0,32.554c-0,11.808 5.638,21.064 19.149,21.064c5.851,-0 11.383,-2.022 15.106,-6.809l0,5.638l14.469,0l-0,-52.447l-14.469,0Z" style="fill-rule:nonzero;"/><path d="M285.53,29.877l-0,19.871c-0,10.851 -0,22.341 -10.745,22.341c-8.723,-0 -9.149,-7.234 -9.149,-11.596l0,-30.616l-14.362,0l0,33.807c0,11.809 5.639,21.064 19.149,21.064c5.851,0 11.383,-2.021 15.107,-6.808l-0,5.638l14.468,0l0,-53.701l-14.468,0Z" style="fill-rule:nonzero;"/><path d="M230.707,30.044l-0,24.086c-0,10.851 -1.779,17.776 -12.524,17.776c-8.723,-0 -11.738,-8.261 -11.738,-12.623l-0,-3.476l-9.994,0.123l0,6.668c0,11.808 5.638,21.064 19.149,21.064c5.851,-0 11.383,-2.022 15.107,-6.809l13.071,-11.95l-0,-34.859l-13.071,0Z" style="fill-rule:nonzero;"/><path d="M184.71,29.812c-5.745,0 -11.277,3.511 -13.617,9.469l-0,-8.298l-14.575,-0l0,52.447l14.469,-0l-0,-25.426c-0,-9.574 3.723,-13.936 10.425,-13.936c2.553,-0 5,0.745 6.596,1.808l6.915,-12.872c-3.511,-2.234 -6.702,-3.192 -10.213,-3.192Z" style="fill-rule:nonzero;"/></g><g><path d="M5.623,112.13l4.338,-0l-0,-12.436l3.438,-0l0,-3.406l-3.438,-0l-0,-1.607c-0,-0.707 0.096,-1.671 1.189,-1.671c0.482,-0 0.9,0.161 1.285,0.386l1.382,-3.342c-0.9,-0.386 -1.832,-0.675 -3.149,-0.675c-2.635,-0 -5.013,1.092 -5.013,5.302l-0,1.607l-2.956,-0l-0,3.406l2.924,-0l-0,12.436Z" style="fill-rule:nonzero;"/><path d="M21.497,112.483c4.981,0 8.034,-3.888 8.034,-8.29c-0,-4.435 -3.021,-8.259 -8.034,-8.259c-5.045,0 -8.033,3.824 -8.033,8.259c-0,4.402 3.02,8.29 8.033,8.29Zm0,-3.824c-2.796,0 -3.695,-2.217 -3.695,-4.466c-0,-2.314 0.932,-4.467 3.695,-4.467c2.796,-0 3.696,2.153 3.696,4.467c-0,2.281 -0.932,4.466 -3.696,4.466Z" style="fill-rule:nonzero;"/><path d="M40.681,95.934c-1.735,0 -3.406,1.061 -4.113,2.86l0,-2.506l-4.402,-0l-0,15.842l4.37,-0l0,-7.68c0,-2.892 1.125,-4.21 3.149,-4.21c0.771,0 1.511,0.225 1.993,0.546l2.088,-3.888c-1.06,-0.675 -2.024,-0.964 -3.085,-0.964Z" style="fill-rule:nonzero;"/><path d="M59.319,95.934c-2.828,0 -5.463,1.028 -7.391,3.214l3.15,2.635c1.285,-1.446 2.635,-2.057 4.048,-2.057c1.8,-0 2.86,0.932 2.86,2.378l0,0.353l-4.177,0c-1.607,0 -2.892,0.225 -3.92,0.739c-1.446,0.74 -2.282,2.089 -2.282,3.953c0,3.117 2.474,5.334 5.913,5.334c1.606,0 3.374,-0.578 4.499,-2.185l0.321,1.832l3.985,-0l-0,-10.026c-0,-3.792 -2.668,-6.17 -7.006,-6.17Zm-1.092,12.95c-1.478,0 -2.282,-0.707 -2.282,-1.671c0,-0.482 0.193,-0.867 0.579,-1.124c0.385,-0.29 0.996,-0.418 1.896,-0.418l3.566,-0c-0.032,1.831 -1.735,3.213 -3.759,3.213Z" style="fill-rule:nonzero;"/><path d="M86.537,95.934c-1.735,0 -3.406,0.707 -4.402,1.768l-0,-7.97l-4.371,0l0,22.398l4.371,-0l-0,-1.35c1.124,1.221 2.828,1.703 4.338,1.703c4.209,0 6.587,-3.534 6.587,-8.29c0,-5.238 -2.86,-8.259 -6.523,-8.259Zm-1.157,12.468c-2.635,0 -3.663,-1.831 -3.663,-4.177c-0,-2.282 0.964,-4.306 3.599,-4.306c2.378,-0 3.406,1.606 3.406,4.306c0,2.731 -1.028,4.177 -3.342,4.177Z" style="fill-rule:nonzero;"/><path d="M95.824,93.685l4.499,-0l-0,-3.953l-4.499,0l-0,3.953Zm0.064,18.445l4.37,-0l0,-15.842l-4.37,-0l0,15.842Z" style="fill-rule:nonzero;"/><path d="M104.34,112.13l4.37,-0l-0,-4.628l2.056,-2.345l4.371,6.973l5.173,-0l-6.459,-9.801l5.849,-6.041l-5.817,-0l-5.173,5.816l-0,-12.372l-4.37,0l-0,22.398Z" style="fill-rule:nonzero;"/><path d="M134.996,104.161c-0,-4.628 -2.475,-8.227 -7.423,-8.227c-5.463,0 -7.648,4.306 -7.648,8.355c-0,4.145 2.249,8.194 7.905,8.194c2.731,0 4.916,-1.028 6.619,-2.924l-3.02,-2.667c-0.996,1.189 -2.25,1.639 -3.567,1.639c-2.282,-0 -3.406,-1.189 -3.599,-2.86l10.636,-0c0.065,-0.579 0.097,-1.028 0.097,-1.51Zm-10.765,-1.8c0.192,-1.285 1.092,-2.796 3.31,-2.796c1.799,0 3.245,1.061 3.309,2.796l-6.619,-0Z" style="fill-rule:nonzero;"/><path d="M154.051,95.934c-1.735,0 -3.406,1.061 -4.113,2.86l0,-2.506l-4.402,-0l-0,15.842l4.37,-0l0,-7.68c0,-2.892 1.125,-4.21 3.149,-4.21c0.771,0 1.51,0.225 1.993,0.546l2.088,-3.888c-1.06,-0.675 -2.024,-0.964 -3.085,-0.964Z" style="fill-rule:nonzero;"/><path d="M158.614,93.685l4.499,-0l0,-3.953l-4.499,0l0,3.953Zm0.065,18.445l4.37,-0l-0,-15.842l-4.37,-0l-0,15.842Z" style="fill-rule:nonzero;"/><path d="M176.835,89.732l-0,8.002c-0.964,-1.093 -2.668,-1.8 -4.371,-1.8c-3.727,0 -6.587,3.021 -6.587,8.259c-0,4.756 2.378,8.29 6.587,8.29c1.543,0 3.278,-0.482 4.371,-1.767l-0,1.414l4.338,-0l-0,-22.398l-4.338,0Zm-3.246,18.67c-2.185,0 -3.342,-1.446 -3.342,-4.177c0,-2.7 1.157,-4.306 3.374,-4.306c2.635,-0 3.599,2.024 3.599,4.306c0,2.346 -0.996,4.177 -3.631,4.177Z" style="fill-rule:nonzero;"/><path d="M199.007,104.161c0,-4.628 -2.474,-8.227 -7.423,-8.227c-5.463,0 -7.648,4.306 -7.648,8.355c0,4.145 2.25,8.194 7.905,8.194c2.732,0 4.917,-1.028 6.62,-2.924l-3.021,-2.667c-0.996,1.189 -2.249,1.639 -3.567,1.639c-2.281,-0 -3.406,-1.189 -3.599,-2.86l10.637,-0c0.064,-0.579 0.096,-1.028 0.096,-1.51Zm-10.765,-1.8c0.193,-1.285 1.093,-2.796 3.31,-2.796c1.8,0 3.246,1.061 3.31,2.796l-6.62,-0Z" style="fill-rule:nonzero;"/></g></g></svg>