<?xml version="1.0" encoding="UTF-8" standalone="no"?><!DOCTYPE svg PUBLIC "-//W3C//DTD SVG 1.1//EN" "http://www.w3.org/Graphics/SVG/1.1/DTD/svg11.dtd"><svg width="100%" height="100%" viewBox="0 0 225 162" version="1.1" xmlns="http://www.w3.org/2000/svg" xmlns:xlink="http://www.w3.org/1999/xlink" xml:space="preserve" xmlns:serif="http://www.serif.com/" style="fill-rule:evenodd;clip-rule:evenodd;stroke-linejoin:round;stroke-miterlimit:2;"><g id="D5"><g><g><path d="M122.264,57.525c9.239,-0.135 14.02,-2.832 14.063,-12.182l0.222,-29.303l-7.415,0.005l-0.143,30.254c-0.06,3.27 -2.297,5.754 -6.763,5.802c-0.22,0.002 -6.785,-0.003 -6.785,-0.003l0.027,5.434c-0,-0 6.585,-0.004 6.794,-0.007Z" style="fill-rule:nonzero;"/></g><g><path d="M152.713,57.525c9.239,-0.135 14.695,-2.832 14.739,-12.182l-0.002,-28.55l-7.991,-0.031l-0.02,29.537c-0.06,3.27 -2.296,5.754 -6.762,5.802c-0.22,0.002 -8.371,-0.003 -8.371,-0.003l0.069,5.434c-0,-0 8.129,-0.004 8.338,-0.007Z" style="fill-rule:nonzero;"/></g><path d="M120.654,45.722c2.677,0 6.325,-2.459 8.341,-3.529c4.845,-2.572 7.05,-5.384 7.05,-11.064c-0,-8.103 -4.754,-15.089 -13.923,-15.089c-9.229,-0 -14.082,7.453 -14.082,15.555c-0,8.044 3.444,14.127 12.614,14.127Zm1.468,-6.432c-5.114,0 -6.324,-4.025 -6.324,-8.135c-0,-4.227 1.268,-8.187 6.324,-8.187c5.114,-0 6.759,3.934 6.759,8.161c0,4.169 -1.704,8.161 -6.759,8.161Z" style="fill-rule:nonzero;"/><path d="M8.861,46.347c1.352,0 2.998,-0.293 4.703,-0.939l-0,-6.282c-0.764,0.176 -1.47,0.293 -2.057,0.293c-1.176,0 -1.881,-0.352 -1.881,-1.703l-0,-32.938l-7.936,0l0,33.76c0,5.402 3.116,7.809 7.171,7.809Z" style="fill-rule:nonzero;"/><rect x="18.325" y="16.756" width="7.994" height="28.946" style="fill-rule:nonzero;"/><path d="M22.453,8.126c-0.092,0.137 -2.056,3.063 -2.088,4.481c-0.032,1.362 0.169,1.514 0.169,1.514c0,-0 -2.935,-1.271 -2.444,-3.892c0.48,-2.558 4.179,-9.859 4.36,-10.215l0,-0.012c0,0 0.001,0.002 0.003,0.006c0.003,-0.005 0.004,-0.008 0.004,-0.008l-0,0.016c0.181,0.356 3.88,7.657 4.36,10.215c0.491,2.621 -2.444,3.892 -2.444,3.892c-0,-0 0.201,-0.152 0.169,-1.514c-0.033,-1.427 -2.02,-4.38 -2.089,-4.483Z" style="fill:#140b19;"/><path d="M50.185,22.979l-0,-6.223l-7.289,-0l-0,-10.803l-7.936,5.871l0,4.932l-4.702,-0l-0,6.223l4.702,0l0,14.033c0,6.811 4.468,9.335 9.64,9.335c1.94,0 3.762,-0.293 5.585,-0.939l-0,-6.282c-1.294,0.411 -2.528,0.645 -3.645,0.645c-2.939,0 -3.644,-1.702 -3.644,-3.405l-0,-13.387l7.289,0Z" style="fill-rule:nonzero;"/><path d="M74.167,16.756l0,10.275c0,5.988 0,12.329 -5.937,12.329c-4.82,0 -5.055,-3.992 -5.055,-6.399l0,-16.205l-7.935,-0l-0,17.966c-0,6.517 3.115,11.625 10.58,11.625c3.233,0 6.29,-1.115 8.347,-3.757l0,3.111l7.994,0l0,-28.945l-7.994,-0Z" style="fill-rule:nonzero;"/><path d="M159.456,16.075l0,10.967c0,5.989 0,12.33 -5.937,12.33c-4.82,-0 -5.055,-3.993 -5.055,-6.4l0,-16.897l-7.935,0l-0,18.658c-0,6.518 3.115,11.626 10.58,11.626c3.233,-0 6.29,-1.116 8.347,-3.758l0,3.112l7.994,-0l0,-29.638l-7.994,0Z" style="fill-rule:nonzero;"/><path d="M129.164,16.167l0,13.293c0,5.989 -0.982,9.811 -6.919,9.811c-4.82,-0 -6.486,-4.559 -6.486,-6.967l-0,-1.918l-5.522,0.068l-0,3.68c-0,6.517 3.115,11.625 10.58,11.625c3.233,-0 6.29,-1.116 8.347,-3.758l7.223,-6.595l-0,-19.239l-7.223,0Z" style="fill-rule:nonzero;"/><path d="M103.749,16.04c-3.174,-0 -6.23,1.937 -7.524,5.225l0,-4.58l-8.053,0l0,28.946l7.995,0l-0,-14.032c-0,-5.285 2.057,-7.692 5.76,-7.692c1.411,0 2.763,0.411 3.645,0.998l3.82,-7.104c-1.939,-1.233 -3.703,-1.761 -5.643,-1.761Z" style="fill-rule:nonzero;"/></g><g><path d="M5.339,102.753l7.92,-0l0,-22.679l6.278,-0l0,-6.212l-6.278,-0l0,-2.93c0,-1.289 0.176,-3.047 2.171,-3.047c0.88,-0 1.643,0.293 2.347,0.703l2.523,-6.095c-1.643,-0.703 -3.344,-1.231 -5.75,-1.231c-4.811,0 -9.152,1.993 -9.152,9.67l-0,2.93l-5.398,-0l-0,6.212l5.339,-0l-0,22.679Z" style="fill-rule:nonzero;"/><path d="M34.322,103.398c9.094,-0 14.668,-7.091 14.668,-15.12c-0,-8.087 -5.515,-15.061 -14.668,-15.061c-9.211,0 -14.668,6.974 -14.668,15.061c0,8.029 5.515,15.12 14.668,15.12Zm0,-6.974c-5.104,-0 -6.747,-4.044 -6.747,-8.146c-0,-4.219 1.701,-8.146 6.747,-8.146c5.104,0 6.747,3.927 6.747,8.146c0,4.161 -1.701,8.146 -6.747,8.146Z" style="fill-rule:nonzero;"/><path d="M69.348,73.217c-3.168,0 -6.219,1.934 -7.51,5.216l0,-4.571l-8.037,-0l-0,28.891l7.979,-0l-0,-14.006c-0,-5.274 2.053,-7.677 5.749,-7.677c1.408,0 2.758,0.41 3.638,0.996l3.813,-7.091c-1.936,-1.23 -3.696,-1.758 -5.632,-1.758Z" style="fill-rule:nonzero;"/><path d="M103.377,73.217c-5.163,0 -9.974,1.876 -13.494,5.861l5.749,4.805c2.347,-2.637 4.811,-3.751 7.393,-3.751c3.285,0 5.221,1.7 5.221,4.337l0,0.645l-7.627,-0c-2.933,-0 -5.28,0.41 -7.157,1.348c-2.641,1.347 -4.166,3.809 -4.166,7.208c-0,5.684 4.518,9.728 10.795,9.728c2.934,-0 6.161,-1.055 8.214,-3.985l0.587,3.34l7.275,-0l-0,-18.284c-0,-6.915 -4.87,-11.252 -12.79,-11.252Zm-1.995,23.617c-2.699,0 -4.166,-1.289 -4.166,-3.047c0,-0.879 0.352,-1.582 1.056,-2.051c0.705,-0.528 1.819,-0.762 3.462,-0.762l6.512,-0c-0.058,3.34 -3.168,5.86 -6.864,5.86Z" style="fill-rule:nonzero;"/><path d="M19.654,131.82c-3.168,-0 -6.219,1.289 -8.037,3.223l-0,-14.533l-7.979,-0l-0,40.845l7.979,0l-0,-2.461c2.053,2.227 5.163,3.106 7.92,3.106c7.686,-0 12.028,-6.446 12.028,-15.119c-0,-9.553 -5.222,-15.061 -11.911,-15.061Zm-2.112,22.737c-4.811,0 -6.688,-3.34 -6.688,-7.618c-0,-4.161 1.76,-7.853 6.571,-7.853c4.342,0 6.219,2.931 6.219,7.853c0,4.981 -1.877,7.618 -6.102,7.618Z" style="fill-rule:nonzero;"/><path d="M36.61,127.718l8.214,-0l-0,-7.208l-8.214,-0l0,7.208Zm0.118,33.637l7.979,0l-0,-28.891l-7.979,0l-0,28.891Z" style="fill-rule:nonzero;"/><path d="M52.158,161.355l7.979,0l-0,-8.438l3.755,-4.278l7.979,12.716l9.446,0l-11.793,-17.873l10.678,-11.018l-10.619,0l-9.446,10.607l-0,-22.561l-7.979,-0l-0,40.845Z" style="fill-rule:nonzero;"/><path d="M108.129,146.822c0,-8.439 -4.518,-15.002 -13.553,-15.002c-9.974,-0 -13.963,7.852 -13.963,15.236c-0,7.56 4.107,14.944 14.433,14.944c4.987,-0 8.976,-1.875 12.086,-5.333l-5.515,-4.864c-1.819,2.168 -4.107,2.989 -6.513,2.989c-4.165,-0 -6.219,-2.168 -6.571,-5.216l19.42,0c0.117,-1.055 0.176,-1.875 0.176,-2.754Zm-19.654,-3.282c0.352,-2.344 1.994,-5.098 6.043,-5.098c3.285,-0 5.925,1.934 6.043,5.098l-12.086,0Z" style="fill-rule:nonzero;"/><path d="M142.92,131.82c-3.168,-0 -6.219,1.934 -7.509,5.215l-0,-4.571l-8.038,0l-0,28.891l7.979,0l0,-14.006c0,-5.274 2.053,-7.677 5.75,-7.677c1.408,0 2.757,0.411 3.637,0.997l3.814,-7.091c-1.936,-1.231 -3.696,-1.758 -5.633,-1.758Z" style="fill-rule:nonzero;"/><path d="M151.252,127.718l8.213,-0l0,-7.208l-8.213,-0l-0,7.208Zm0.117,33.637l7.979,0l0,-28.891l-7.979,0l-0,28.891Z" style="fill-rule:nonzero;"/><path d="M184.518,120.51l-0,14.591c-1.761,-1.992 -4.87,-3.281 -7.98,-3.281c-6.805,-0 -12.027,5.508 -12.027,15.061c0,8.673 4.342,15.119 12.027,15.119c2.817,-0 5.985,-0.879 7.98,-3.223l-0,2.578l7.92,0l0,-40.845l-7.92,-0Zm-5.926,34.047c-3.99,0 -6.102,-2.637 -6.102,-7.618c0,-4.922 2.112,-7.853 6.161,-7.853c4.811,0 6.571,3.692 6.571,7.853c-0,4.278 -1.819,7.618 -6.63,7.618Z" style="fill-rule:nonzero;"/><path d="M225,146.822c-0,-8.439 -4.518,-15.002 -13.553,-15.002c-9.974,-0 -13.963,7.852 -13.963,15.236c-0,7.56 4.107,14.944 14.433,14.944c4.987,-0 8.976,-1.875 12.086,-5.333l-5.515,-4.864c-1.819,2.168 -4.107,2.989 -6.513,2.989c-4.165,-0 -6.219,-2.168 -6.571,-5.216l19.42,0c0.117,-1.055 0.176,-1.875 0.176,-2.754Zm-19.654,-3.282c0.352,-2.344 1.994,-5.098 6.043,-5.098c3.285,-0 5.925,1.934 6.043,5.098l-12.086,0Z" style="fill-rule:nonzero;"/></g></g></svg>