<?xml version="1.0" encoding="UTF-8" standalone="no"?><!DOCTYPE svg PUBLIC "-//W3C//DTD SVG 1.1//EN" "http://www.w3.org/Graphics/SVG/1.1/DTD/svg11.dtd"><svg width="100%" height="100%" viewBox="0 0 713 76" version="1.1" xmlns="http://www.w3.org/2000/svg" xmlns:xlink="http://www.w3.org/1999/xlink" xml:space="preserve" xmlns:serif="http://www.serif.com/" style="fill-rule:evenodd;clip-rule:evenodd;stroke-linejoin:round;stroke-miterlimit:2;"><g id="D8"><g><path d="M153.768,59.883c-10.456,-0.881 -14.443,-8.526 -14.443,-18.443c-0,-10.627 6.358,-20.403 18.448,-20.403c3.575,0 6.638,0.812 9.176,2.232l0.011,-2.225l9.714,-0.007l-0.291,38.435c-0.056,12.262 -6.319,15.799 -18.423,15.976c-0.274,0.004 -8.901,0.01 -8.901,0.01l-0.036,-7.128c0,0 8.601,0.007 8.889,0.004c5.852,-0.063 8.781,-3.321 8.86,-7.609l0.026,-5.384c-2.691,3.284 -6.603,4.676 -10.734,4.676c-0.803,-0 -1.568,-0.046 -2.296,-0.134Zm5.104,-8.402c5.773,-0.552 7.757,-5.5 7.757,-10.653c-0,-5.544 -2.156,-10.704 -8.856,-10.704c-6.623,0 -8.285,5.194 -8.285,10.738c0,1.62 0.143,3.229 0.525,4.689c1.002,2.897 3.405,5.956 7.921,5.956c0.324,-0 0.637,-0.009 0.938,-0.026Z" style="fill:#fff;"/><path d="M206.665,55.899c-2.695,3.448 -6.691,4.904 -10.916,4.904c-9.78,0 -13.861,-6.699 -13.861,-15.247l-0,-24.472l10.396,-0l-0,22.162c-0,3.157 0.308,8.393 6.622,8.393c7.038,0 7.707,-6.809 7.771,-13.923l0.007,-10.081l-0,-6.551l10.473,-0l-0,0.942l0.001,37.446c-0,0.061 -0.001,0.122 -0.001,0.182l-0,0.302l-0.005,0c-0.241,11.871 -7.36,15.317 -19.303,15.492c-0.273,0.004 -10.923,0.01 -10.923,0.01l-0.091,-7.128c0,0 10.679,0.007 10.967,0.004c5.851,-0.063 8.781,-3.321 8.86,-7.609l0.003,-4.826Z" style="fill:#fff;"/><path d="M9.395,60.788c1.771,0 3.927,-0.385 6.16,-1.232l0,-8.24c-1.001,0.231 -1.925,0.385 -2.695,0.385c-1.54,0 -2.464,-0.462 -2.464,-2.233l-0,-43.201l-10.396,0l0,44.279c0,7.085 4.081,10.242 9.395,10.242Z" style="fill:#fff;fill-rule:nonzero;"/><rect x="21.793" y="21.977" width="10.473" height="37.964" style="fill:#fff;fill-rule:nonzero;"/><path d="M27.2,10.658c-0.12,0.179 -2.692,4.017 -2.735,5.876c-0.041,1.787 0.222,1.986 0.222,1.986c-0,0 -3.845,-1.666 -3.202,-5.104c0.628,-3.355 5.475,-12.931 5.712,-13.398l-0,-0.015c-0,-0 0.001,0.002 0.004,0.007c0.003,-0.007 0.005,-0.01 0.005,-0.01l-0,0.021c0.237,0.467 5.083,10.043 5.711,13.397c0.644,3.439 -3.201,5.105 -3.201,5.105c-0,0 0.263,-0.199 0.222,-1.986c-0.043,-1.87 -2.647,-5.744 -2.738,-5.879Z" style="fill:#fff;"/><path d="M63.531,30.139l-0,-8.162l-9.549,-0l-0,-14.17l-10.396,7.701l0,6.469l-6.161,-0l0,8.162l6.161,0l0,18.405c0,8.933 5.853,12.244 12.629,12.244c2.541,0 4.929,-0.385 7.316,-1.232l-0,-8.24c-1.694,0.539 -3.311,0.847 -4.775,0.847c-3.85,0 -4.774,-2.233 -4.774,-4.466l-0,-17.558l9.549,0Z" style="fill:#fff;fill-rule:nonzero;"/><path d="M94.95,21.977l-0,13.476c-0,7.855 -0,16.171 -7.778,16.171c-6.315,0 -6.623,-5.236 -6.623,-8.394l0,-21.253l-10.396,-0l0,23.564c0,8.547 4.082,15.247 13.862,15.247c4.235,0 8.24,-1.463 10.935,-4.928l-0,4.081l10.473,0l-0,-37.964l-10.473,-0Z" style="fill:#fff;fill-rule:nonzero;"/><path d="M133.704,21.037c-4.158,0 -8.162,2.541 -9.857,6.854l0,-6.007l-10.55,0l0,37.965l10.473,-0l0,-18.405c0,-6.931 2.696,-10.088 7.547,-10.088c1.848,0 3.619,0.539 4.775,1.309l5.005,-9.318c-2.541,-1.617 -4.851,-2.31 -7.393,-2.31Z" style="fill:#fff;fill-rule:nonzero;"/></g><g><path d="M249.946,60.864l10.376,0l0,-29.745l8.225,-0l-0,-8.148l-8.225,0l0,-3.843c0,-1.691 0.231,-3.996 2.844,-3.996c1.153,-0 2.152,0.384 3.075,0.922l3.305,-7.994c-2.152,-0.922 -4.381,-1.614 -7.533,-1.614c-6.302,0 -11.99,2.614 -11.99,12.682l-0,3.843l-7.071,0l-0,8.148l6.994,-0l0,29.745Z" style="fill:#fff;fill-rule:nonzero;"/><path d="M287.916,61.71c11.913,-0 19.215,-9.3 19.215,-19.831c0,-10.606 -7.225,-19.753 -19.215,-19.753c-12.067,0 -19.216,9.147 -19.216,19.753c0,10.531 7.225,19.831 19.216,19.831Zm-0,-9.147c-6.687,0 -8.839,-5.303 -8.839,-10.684c-0,-5.534 2.229,-10.683 8.839,-10.683c6.687,-0 8.839,5.149 8.839,10.683c-0,5.458 -2.229,10.684 -8.839,10.684Z" style="fill:#fff;fill-rule:nonzero;"/><path d="M333.802,22.126c-4.15,0 -8.147,2.536 -9.838,6.841l-0,-5.996l-10.53,0l-0,37.893l10.453,0l0,-18.37c0,-6.917 2.69,-10.069 7.533,-10.069c1.844,0 3.612,0.539 4.765,1.307l4.996,-9.3c-2.536,-1.614 -4.842,-2.306 -7.379,-2.306Z" style="fill:#fff;fill-rule:nonzero;"/><path d="M378.382,22.126c-6.764,0 -13.066,2.46 -17.678,7.686l7.532,6.303c3.075,-3.459 6.303,-4.919 9.685,-4.919c4.304,-0 6.841,2.229 6.841,5.687l-0,0.846l-9.992,-0c-3.844,-0 -6.918,0.538 -9.378,1.768c-3.458,1.768 -5.457,4.996 -5.457,9.454c0,7.455 5.919,12.759 14.143,12.759c3.843,-0 8.07,-1.384 10.76,-5.227l0.769,4.381l9.531,0l-0,-23.981c-0,-9.069 -6.38,-14.757 -16.756,-14.757Zm-2.613,30.975c-3.536,0 -5.457,-1.691 -5.457,-3.997c-0,-1.152 0.461,-2.075 1.383,-2.69c0.922,-0.691 2.383,-0.999 4.535,-0.999l8.532,0c-0.077,4.381 -4.151,7.686 -8.993,7.686Z" style="fill:#fff;fill-rule:nonzero;"/><path d="M443.484,22.126c-4.151,0 -8.147,1.691 -10.53,4.227l-0,-19.061l-10.453,-0l-0,53.572l10.453,0l-0,-3.228c2.69,2.921 6.764,4.074 10.376,4.074c10.069,-0 15.757,-8.455 15.757,-19.831c-0,-12.528 -6.841,-19.753 -15.603,-19.753Zm-2.767,29.822c-6.303,0 -8.762,-4.381 -8.762,-9.992c-0,-5.457 2.306,-10.299 8.608,-10.299c5.688,-0 8.148,3.843 8.148,10.299c-0,6.534 -2.46,9.992 -7.994,9.992Z" style="fill:#fff;fill-rule:nonzero;"/><path d="M465.697,16.746l10.761,-0l-0,-9.454l-10.761,-0l-0,9.454Zm0.154,44.118l10.453,0l-0,-37.893l-10.453,0l-0,37.893Z" style="fill:#fff;fill-rule:nonzero;"/><path d="M486.065,60.864l10.454,0l-0,-11.068l4.919,-5.611l10.453,16.679l12.375,0l-15.45,-23.443l13.989,-14.45l-13.912,0l-12.374,13.912l-0,-29.591l-10.454,-0l0,53.572Z" style="fill:#fff;fill-rule:nonzero;"/><path d="M559.391,41.803c0,-11.068 -5.918,-19.677 -17.755,-19.677c-13.066,0 -18.293,10.299 -18.293,19.984c0,9.915 5.381,19.6 18.908,19.6c6.534,-0 11.76,-2.46 15.834,-6.995l-7.225,-6.379c-2.383,2.844 -5.381,3.92 -8.532,3.92c-5.457,-0 -8.147,-2.844 -8.608,-6.841l25.441,0c0.154,-1.383 0.23,-2.459 0.23,-3.612Zm-25.748,-4.305c0.461,-3.074 2.613,-6.687 7.917,-6.687c4.304,0 7.763,2.537 7.916,6.687l-15.833,0Z" style="fill:#fff;fill-rule:nonzero;"/><path d="M604.97,22.126c-4.15,0 -8.147,2.536 -9.838,6.841l0,-5.996l-10.53,0l0,37.893l10.453,0l0,-18.37c0,-6.917 2.69,-10.069 7.533,-10.069c1.844,0 3.612,0.539 4.765,1.307l4.996,-9.3c-2.536,-1.614 -4.842,-2.306 -7.379,-2.306Z" style="fill:#fff;fill-rule:nonzero;"/><path d="M615.885,16.746l10.76,-0l0,-9.454l-10.76,-0l-0,9.454Zm0.154,44.118l10.453,0l-0,-37.893l-10.453,0l-0,37.893Z" style="fill:#fff;fill-rule:nonzero;"/><path d="M659.465,7.292l0,19.138c-2.305,-2.613 -6.379,-4.304 -10.453,-4.304c-8.916,0 -15.756,7.225 -15.756,19.753c-0,11.376 5.687,19.831 15.756,19.831c3.69,-0 7.84,-1.153 10.453,-4.228l0,3.382l10.377,0l-0,-53.572l-10.377,-0Zm-7.763,44.656c-5.226,0 -7.993,-3.458 -7.993,-9.992c-0,-6.456 2.767,-10.299 8.07,-10.299c6.303,-0 8.609,4.842 8.609,10.299c-0,5.611 -2.383,9.992 -8.686,9.992Z" style="fill:#fff;fill-rule:nonzero;"/><path d="M712.5,41.803c0,-11.068 -5.918,-19.677 -17.755,-19.677c-13.067,0 -18.293,10.299 -18.293,19.984c-0,9.915 5.38,19.6 18.908,19.6c6.533,-0 11.76,-2.46 15.833,-6.995l-7.225,-6.379c-2.382,2.844 -5.38,3.92 -8.531,3.92c-5.457,-0 -8.148,-2.844 -8.609,-6.841l25.441,0c0.154,-1.383 0.231,-2.459 0.231,-3.612Zm-25.749,-4.305c0.461,-3.074 2.614,-6.687 7.917,-6.687c4.304,0 7.763,2.537 7.917,6.687l-15.834,0Z" style="fill:#fff;fill-rule:nonzero;"/></g></g></svg>