<?xml version="1.0" encoding="UTF-8" standalone="no"?><!DOCTYPE svg PUBLIC "-//W3C//DTD SVG 1.1//EN" "http://www.w3.org/Graphics/SVG/1.1/DTD/svg11.dtd"><svg width="100%" height="100%" viewBox="0 0 225 75" version="1.1" xmlns="http://www.w3.org/2000/svg" xmlns:xlink="http://www.w3.org/1999/xlink" xml:space="preserve" xmlns:serif="http://www.serif.com/" style="fill-rule:evenodd;clip-rule:evenodd;stroke-linejoin:round;stroke-miterlimit:2;"><g id="D2"><g><path d="M159.007,59.52c-10.731,-0.876 -14.822,-8.475 -14.822,-18.332c-0,-10.562 6.525,-20.278 18.933,-20.278c3.669,-0 6.812,0.806 9.417,2.218l0.011,-2.211l9.969,-0.007l-0.298,38.201c-0.058,12.188 -6.486,15.704 -18.908,15.88c-0.28,0.004 -9.134,0.009 -9.134,0.009l-0.037,-7.084c0,-0 8.827,0.007 9.123,0.004c6.005,-0.063 9.011,-3.301 9.092,-7.563l0.027,-5.352c-2.762,3.264 -6.776,4.648 -11.016,4.648c-0.824,-0 -1.61,-0.045 -2.357,-0.133Zm5.239,-8.351c5.924,-0.549 7.96,-5.467 7.96,-10.589c0,-5.51 -2.213,-10.639 -9.088,-10.639c-6.797,0 -8.503,5.162 -8.503,10.673c0,1.61 0.147,3.21 0.539,4.66c1.029,2.88 3.494,5.921 8.129,5.921c0.333,-0 0.653,-0.009 0.963,-0.026Z"/><path d="M214.231,55.545c-2.766,3.438 -6.872,4.889 -11.215,4.889c-10.036,0 -14.225,-6.659 -14.225,-15.155l-0,-24.323l10.669,0l0,22.027c0,3.138 0.316,8.343 6.797,8.343c7.982,0 7.982,-8.266 7.982,-16.073l-0,-14.297l10.748,0l-0,0.936l0.011,0l0.002,37.219c-0.058,12.188 -7.394,15.704 -19.816,15.88c-0.281,0.004 -11.211,0.009 -11.211,0.009l-0.092,-7.084c-0,-0 10.958,0.007 11.254,0.004c6.005,-0.063 9.012,-3.301 9.093,-7.563l0.003,-4.812Z"/><path d="M9.642,60.419c1.817,0 4.03,-0.382 6.322,-1.224l0,-8.19c-1.027,0.23 -1.976,0.383 -2.766,0.383c-1.581,-0 -2.529,-0.46 -2.529,-2.22l0,-42.939l-10.669,0l0,44.011c0,7.041 4.189,10.179 9.642,10.179Z" style="fill-rule:nonzero;"/><rect x="22.366" y="21.843" width="10.748" height="37.734" style="fill-rule:nonzero;"/><path d="M27.915,10.594c-0.124,0.178 -2.763,3.992 -2.807,5.84c-0.042,1.776 0.227,1.974 0.227,1.974c0,0 -3.946,-1.656 -3.285,-5.074c0.644,-3.334 5.618,-12.852 5.861,-13.316l0,-0.015c0,-0 0.002,0.002 0.004,0.007c0.004,-0.007 0.006,-0.01 0.006,-0.01l-0,0.02c0.243,0.465 5.217,9.983 5.861,13.317c0.661,3.418 -3.285,5.074 -3.285,5.074c-0,0 0.269,-0.198 0.227,-1.974c-0.044,-1.859 -2.716,-5.71 -2.809,-5.843Z" style="fill:#140b19;"/><path d="M65.2,29.957l0,-8.114l-9.8,0l0,-14.083l-10.669,7.654l0,6.429l-6.322,0l-0,8.114l6.322,-0l0,18.293c0,8.878 6.007,12.169 12.961,12.169c2.608,0 5.058,-0.382 7.508,-1.224l0,-8.19c-1.739,0.536 -3.398,0.842 -4.9,0.842c-3.951,-0 -4.9,-2.22 -4.9,-4.439l0,-17.451l9.8,-0Z" style="fill-rule:nonzero;"/><path d="M97.096,21.843l-0,13.395c-0,7.807 -0,16.073 -7.982,16.073c-6.481,0 -6.797,-5.205 -6.797,-8.343l0,-21.125l-10.669,0l0,23.422c0,8.495 4.189,15.154 14.225,15.154c4.347,0 8.457,-1.454 11.223,-4.898l-0,4.057l10.748,-0l-0,-37.735l-10.748,0Z" style="fill-rule:nonzero;"/><path d="M135.261,20.91c-4.268,-0 -8.377,2.525 -10.116,6.812l0,-5.97l-10.827,-0l-0,37.734l10.748,-0l-0,-18.293c-0,-6.889 2.766,-10.027 7.745,-10.027c1.897,-0 3.714,0.536 4.9,1.301l5.137,-9.261c-2.608,-1.608 -4.979,-2.296 -7.587,-2.296Z" style="fill-rule:nonzero;"/></g></g></svg>