<?xml version="1.0" encoding="UTF-8" standalone="no"?><!DOCTYPE svg PUBLIC "-//W3C//DTD SVG 1.1//EN" "http://www.w3.org/Graphics/SVG/1.1/DTD/svg11.dtd"><svg width="100%" height="100%" viewBox="0 0 713 76" version="1.1" xmlns="http://www.w3.org/2000/svg" xmlns:xlink="http://www.w3.org/1999/xlink" xml:space="preserve" xmlns:serif="http://www.serif.com/" style="fill-rule:evenodd;clip-rule:evenodd;stroke-linejoin:round;stroke-miterlimit:2;"><g id="D8"><g><g><path d="M157.96,75.448c12.104,-0.177 18.367,-3.714 18.423,-15.976l0.291,-38.435l-9.714,0.007l-0.188,39.681c-0.079,4.288 -3.008,7.546 -8.86,7.609c-0.288,0.003 -8.889,-0.004 -8.889,-0.004l0.036,7.128c-0,-0 8.627,-0.006 8.901,-0.01Z" style="fill-rule:nonzero;"/></g><g><path d="M197.849,75.448c12.104,-0.177 19.253,-3.714 19.309,-15.976l-0.002,-37.446l-10.468,-0.042l-0.026,38.741c-0.079,4.288 -3.009,7.546 -8.86,7.609c-0.288,0.003 -10.967,-0.004 -10.967,-0.004l0.091,7.128c-0,-0 10.65,-0.006 10.923,-0.01Z" style="fill-rule:nonzero;"/></g><path d="M155.85,59.968c3.507,0 8.287,-3.225 10.928,-4.629c6.347,-3.373 9.235,-7.061 9.235,-14.511c0,-10.627 -6.227,-19.791 -18.24,-19.791c-12.09,0 -18.448,9.776 -18.448,20.403c-0,10.55 4.512,18.528 16.525,18.528Zm1.923,-8.436c-6.7,0 -8.285,-5.279 -8.285,-10.67c0,-5.544 1.662,-10.738 8.285,-10.738c6.7,0 8.856,5.16 8.856,10.704c-0,5.468 -2.233,10.704 -8.856,10.704Z" style="fill-rule:nonzero;"/><path d="M9.395,60.788c1.771,0 3.927,-0.385 6.16,-1.232l0,-8.24c-1.001,0.231 -1.925,0.385 -2.695,0.385c-1.54,0 -2.464,-0.462 -2.464,-2.233l-0,-43.201l-10.396,0l0,44.279c0,7.085 4.081,10.242 9.395,10.242Z" style="fill-rule:nonzero;"/><rect x="21.793" y="21.977" width="10.473" height="37.964" style="fill-rule:nonzero;"/><path d="M27.2,10.658c-0.12,0.179 -2.692,4.017 -2.735,5.876c-0.041,1.787 0.222,1.986 0.222,1.986c-0,0 -3.845,-1.666 -3.202,-5.104c0.628,-3.355 5.475,-12.931 5.712,-13.398l-0,-0.015c-0,-0 0.001,0.002 0.004,0.007c0.003,-0.007 0.005,-0.01 0.005,-0.01l-0,0.021c0.237,0.467 5.083,10.043 5.711,13.397c0.644,3.439 -3.201,5.105 -3.201,5.105c-0,0 0.263,-0.199 0.222,-1.986c-0.043,-1.87 -2.647,-5.744 -2.738,-5.879Z" style="fill:#140b19;"/><path d="M63.531,30.139l-0,-8.162l-9.549,-0l-0,-14.17l-10.396,7.701l0,6.469l-6.161,-0l0,8.162l6.161,0l0,18.405c0,8.933 5.853,12.244 12.629,12.244c2.541,0 4.929,-0.385 7.316,-1.232l-0,-8.24c-1.694,0.539 -3.311,0.847 -4.775,0.847c-3.85,0 -4.774,-2.233 -4.774,-4.466l-0,-17.558l9.549,0Z" style="fill-rule:nonzero;"/><path d="M94.95,21.977l-0,13.476c-0,7.855 -0,16.171 -7.778,16.171c-6.315,0 -6.623,-5.236 -6.623,-8.394l0,-21.253l-10.396,-0l0,23.564c0,8.547 4.082,15.247 13.862,15.247c4.235,0 8.24,-1.463 10.935,-4.928l-0,4.081l10.473,0l-0,-37.964l-10.473,-0Z" style="fill-rule:nonzero;"/><path d="M206.684,21.084l-0,14.384c-0,7.855 -0,16.171 -7.778,16.171c-6.314,0 -6.622,-5.236 -6.622,-8.393l-0,-22.162l-10.396,-0l-0,24.472c-0,8.548 4.081,15.247 13.861,15.247c4.235,0 8.24,-1.463 10.935,-4.928l-0,4.081l10.473,0l-0,-38.872l-10.473,-0Z" style="fill-rule:nonzero;"/><path d="M166.999,21.205l0,17.435c0,7.854 -1.287,12.867 -9.065,12.867c-6.314,-0 -8.497,-5.98 -8.497,-9.137l0,-2.516l-7.234,0.089l0,4.826c0,8.548 4.082,15.248 13.861,15.248c4.236,-0 8.24,-1.464 10.935,-4.929l9.462,-8.65l0,-25.233l-9.462,-0Z" style="fill-rule:nonzero;"/><path d="M133.704,21.037c-4.158,0 -8.162,2.541 -9.857,6.854l0,-6.007l-10.55,0l0,37.965l10.473,-0l0,-18.405c0,-6.931 2.696,-10.088 7.547,-10.088c1.848,0 3.619,0.539 4.775,1.309l5.005,-9.318c-2.541,-1.617 -4.851,-2.31 -7.393,-2.31Z" style="fill-rule:nonzero;"/></g><g><path d="M249.946,60.864l10.376,0l0,-29.745l8.225,-0l-0,-8.148l-8.225,0l0,-3.843c0,-1.691 0.231,-3.996 2.844,-3.996c1.153,-0 2.152,0.384 3.075,0.922l3.305,-7.994c-2.152,-0.922 -4.381,-1.614 -7.533,-1.614c-6.302,0 -11.99,2.614 -11.99,12.682l-0,3.843l-7.071,0l-0,8.148l6.994,-0l0,29.745Z" style="fill-rule:nonzero;"/><path d="M287.916,61.71c11.913,-0 19.215,-9.3 19.215,-19.831c0,-10.606 -7.225,-19.753 -19.215,-19.753c-12.067,0 -19.216,9.147 -19.216,19.753c0,10.531 7.225,19.831 19.216,19.831Zm-0,-9.147c-6.687,0 -8.839,-5.303 -8.839,-10.684c-0,-5.534 2.229,-10.683 8.839,-10.683c6.687,-0 8.839,5.149 8.839,10.683c-0,5.458 -2.229,10.684 -8.839,10.684Z" style="fill-rule:nonzero;"/><path d="M333.802,22.126c-4.15,0 -8.147,2.536 -9.838,6.841l-0,-5.996l-10.53,0l-0,37.893l10.453,0l0,-18.37c0,-6.917 2.69,-10.069 7.533,-10.069c1.844,0 3.612,0.539 4.765,1.307l4.996,-9.3c-2.536,-1.614 -4.842,-2.306 -7.379,-2.306Z" style="fill-rule:nonzero;"/><path d="M378.382,22.126c-6.764,0 -13.066,2.46 -17.678,7.686l7.532,6.303c3.075,-3.459 6.303,-4.919 9.685,-4.919c4.304,-0 6.841,2.229 6.841,5.687l-0,0.846l-9.992,-0c-3.844,-0 -6.918,0.538 -9.378,1.768c-3.458,1.768 -5.457,4.996 -5.457,9.454c0,7.455 5.919,12.759 14.143,12.759c3.843,-0 8.07,-1.384 10.76,-5.227l0.769,4.381l9.531,0l-0,-23.981c-0,-9.069 -6.38,-14.757 -16.756,-14.757Zm-2.613,30.975c-3.536,0 -5.457,-1.691 -5.457,-3.997c-0,-1.152 0.461,-2.075 1.383,-2.69c0.922,-0.691 2.383,-0.999 4.535,-0.999l8.532,0c-0.077,4.381 -4.151,7.686 -8.993,7.686Z" style="fill-rule:nonzero;"/><path d="M443.484,22.126c-4.151,0 -8.147,1.691 -10.53,4.227l-0,-19.061l-10.453,-0l-0,53.572l10.453,0l-0,-3.228c2.69,2.921 6.764,4.074 10.376,4.074c10.069,-0 15.757,-8.455 15.757,-19.831c-0,-12.528 -6.841,-19.753 -15.603,-19.753Zm-2.767,29.822c-6.303,0 -8.762,-4.381 -8.762,-9.992c-0,-5.457 2.306,-10.299 8.608,-10.299c5.688,-0 8.148,3.843 8.148,10.299c-0,6.534 -2.46,9.992 -7.994,9.992Z" style="fill-rule:nonzero;"/><path d="M465.697,16.746l10.761,-0l-0,-9.454l-10.761,-0l-0,9.454Zm0.154,44.118l10.453,0l-0,-37.893l-10.453,0l-0,37.893Z" style="fill-rule:nonzero;"/><path d="M486.065,60.864l10.454,0l-0,-11.068l4.919,-5.611l10.453,16.679l12.375,0l-15.45,-23.443l13.989,-14.45l-13.912,0l-12.374,13.912l-0,-29.591l-10.454,-0l0,53.572Z" style="fill-rule:nonzero;"/><path d="M559.391,41.803c0,-11.068 -5.918,-19.677 -17.755,-19.677c-13.066,0 -18.293,10.299 -18.293,19.984c0,9.915 5.381,19.6 18.908,19.6c6.534,-0 11.76,-2.46 15.834,-6.995l-7.225,-6.379c-2.383,2.844 -5.381,3.92 -8.532,3.92c-5.457,-0 -8.147,-2.844 -8.608,-6.841l25.441,0c0.154,-1.383 0.23,-2.459 0.23,-3.612Zm-25.748,-4.305c0.461,-3.074 2.613,-6.687 7.917,-6.687c4.304,0 7.763,2.537 7.916,6.687l-15.833,0Z" style="fill-rule:nonzero;"/><path d="M604.97,22.126c-4.15,0 -8.147,2.536 -9.838,6.841l0,-5.996l-10.53,0l0,37.893l10.453,0l0,-18.37c0,-6.917 2.69,-10.069 7.533,-10.069c1.844,0 3.612,0.539 4.765,1.307l4.996,-9.3c-2.536,-1.614 -4.842,-2.306 -7.379,-2.306Z" style="fill-rule:nonzero;"/><path d="M615.885,16.746l10.76,-0l0,-9.454l-10.76,-0l-0,9.454Zm0.154,44.118l10.453,0l-0,-37.893l-10.453,0l-0,37.893Z" style="fill-rule:nonzero;"/><path d="M659.465,7.292l0,19.138c-2.305,-2.613 -6.379,-4.304 -10.453,-4.304c-8.916,0 -15.756,7.225 -15.756,19.753c-0,11.376 5.687,19.831 15.756,19.831c3.69,-0 7.84,-1.153 10.453,-4.228l0,3.382l10.377,0l-0,-53.572l-10.377,-0Zm-7.763,44.656c-5.226,0 -7.993,-3.458 -7.993,-9.992c-0,-6.456 2.767,-10.299 8.07,-10.299c6.303,-0 8.609,4.842 8.609,10.299c-0,5.611 -2.383,9.992 -8.686,9.992Z" style="fill-rule:nonzero;"/><path d="M712.5,41.803c0,-11.068 -5.918,-19.677 -17.755,-19.677c-13.067,0 -18.293,10.299 -18.293,19.984c-0,9.915 5.38,19.6 18.908,19.6c6.533,-0 11.76,-2.46 15.833,-6.995l-7.225,-6.379c-2.382,2.844 -5.38,3.92 -8.531,3.92c-5.457,-0 -8.148,-2.844 -8.609,-6.841l25.441,0c0.154,-1.383 0.231,-2.459 0.231,-3.612Zm-25.749,-4.305c0.461,-3.074 2.614,-6.687 7.917,-6.687c4.304,0 7.763,2.537 7.917,6.687l-15.834,0Z" style="fill-rule:nonzero;"/></g></g></svg>